<mxfile host="app.diagrams.net" modified="2023-03-23T18:44:53.638Z" agent="Mozilla/5.0 (Windows NT 10.0; Win64; x64) AppleWebKit/537.36 (KHTML, like Gecko) Chrome/111.0.0.0 Safari/537.36 Edg/111.0.1661.51" etag="vzJRWZZPTdzMiNDrpTra" version="21.1.0" type="github">
  <diagram name="Страница 1" id="0bKxGdyn_0SxbsxRozNm">
    <mxGraphModel dx="794" dy="462" grid="1" gridSize="10" guides="1" tooltips="1" connect="1" arrows="1" fold="1" page="1" pageScale="1" pageWidth="827" pageHeight="1169" math="0" shadow="0">
      <root>
        <mxCell id="0" />
        <mxCell id="1" parent="0" />
        <mxCell id="DI8fNH34Mr8xwV1-nI3R-9" style="edgeStyle=orthogonalEdgeStyle;rounded=0;orthogonalLoop=1;jettySize=auto;html=1;entryX=0.5;entryY=0;entryDx=0;entryDy=0;" edge="1" parent="1" source="DI8fNH34Mr8xwV1-nI3R-1" target="DI8fNH34Mr8xwV1-nI3R-7">
          <mxGeometry relative="1" as="geometry" />
        </mxCell>
        <mxCell id="DI8fNH34Mr8xwV1-nI3R-1" value="Start" style="strokeWidth=2;html=1;shape=mxgraph.flowchart.start_1;whiteSpace=wrap;" vertex="1" parent="1">
          <mxGeometry x="260" y="150" width="100" height="60" as="geometry" />
        </mxCell>
        <mxCell id="DI8fNH34Mr8xwV1-nI3R-12" style="edgeStyle=orthogonalEdgeStyle;rounded=0;orthogonalLoop=1;jettySize=auto;html=1;entryX=0.5;entryY=0;entryDx=0;entryDy=0;" edge="1" parent="1" source="DI8fNH34Mr8xwV1-nI3R-5" target="DI8fNH34Mr8xwV1-nI3R-11">
          <mxGeometry relative="1" as="geometry" />
        </mxCell>
        <mxCell id="DI8fNH34Mr8xwV1-nI3R-16" style="edgeStyle=orthogonalEdgeStyle;rounded=0;orthogonalLoop=1;jettySize=auto;html=1;entryX=0;entryY=0.5;entryDx=0;entryDy=0;" edge="1" parent="1" source="DI8fNH34Mr8xwV1-nI3R-5" target="DI8fNH34Mr8xwV1-nI3R-15">
          <mxGeometry relative="1" as="geometry" />
        </mxCell>
        <mxCell id="DI8fNH34Mr8xwV1-nI3R-5" value="i=0;i&amp;lt;myArray.Length;&lt;br&gt;i++" style="shape=hexagon;perimeter=hexagonPerimeter2;whiteSpace=wrap;html=1;fixedSize=1;" vertex="1" parent="1">
          <mxGeometry x="240" y="380" width="140" height="80" as="geometry" />
        </mxCell>
        <mxCell id="DI8fNH34Mr8xwV1-nI3R-10" style="edgeStyle=orthogonalEdgeStyle;rounded=0;orthogonalLoop=1;jettySize=auto;html=1;entryX=0.5;entryY=0;entryDx=0;entryDy=0;" edge="1" parent="1" source="DI8fNH34Mr8xwV1-nI3R-7" target="DI8fNH34Mr8xwV1-nI3R-5">
          <mxGeometry relative="1" as="geometry" />
        </mxCell>
        <mxCell id="DI8fNH34Mr8xwV1-nI3R-7" value="int element = Convert.ToInt32(Console.ReadLine)&lt;br style=&quot;border-color: var(--border-color);&quot;&gt;string[ ]myArray=new string [element]" style="rounded=0;whiteSpace=wrap;html=1;" vertex="1" parent="1">
          <mxGeometry x="210" y="260" width="200" height="60" as="geometry" />
        </mxCell>
        <mxCell id="DI8fNH34Mr8xwV1-nI3R-13" style="edgeStyle=orthogonalEdgeStyle;rounded=0;orthogonalLoop=1;jettySize=auto;html=1;entryX=0;entryY=0.5;entryDx=0;entryDy=0;" edge="1" parent="1" source="DI8fNH34Mr8xwV1-nI3R-11" target="DI8fNH34Mr8xwV1-nI3R-5">
          <mxGeometry relative="1" as="geometry">
            <mxPoint x="150" y="420" as="targetPoint" />
            <Array as="points">
              <mxPoint x="310" y="590" />
              <mxPoint x="160" y="590" />
              <mxPoint x="160" y="420" />
            </Array>
          </mxGeometry>
        </mxCell>
        <mxCell id="DI8fNH34Mr8xwV1-nI3R-11" value="myArray[i]=Convert.ToString(Console.ReadLine)" style="rounded=0;whiteSpace=wrap;html=1;" vertex="1" parent="1">
          <mxGeometry x="180" y="510" width="260" height="60" as="geometry" />
        </mxCell>
        <mxCell id="DI8fNH34Mr8xwV1-nI3R-18" style="edgeStyle=orthogonalEdgeStyle;rounded=0;orthogonalLoop=1;jettySize=auto;html=1;" edge="1" parent="1" source="DI8fNH34Mr8xwV1-nI3R-15" target="DI8fNH34Mr8xwV1-nI3R-17">
          <mxGeometry relative="1" as="geometry" />
        </mxCell>
        <mxCell id="DI8fNH34Mr8xwV1-nI3R-15" value="string[ ]array=new string[myArray.Length]" style="rounded=0;whiteSpace=wrap;html=1;" vertex="1" parent="1">
          <mxGeometry x="490" y="390" width="140" height="60" as="geometry" />
        </mxCell>
        <mxCell id="DI8fNH34Mr8xwV1-nI3R-20" style="edgeStyle=orthogonalEdgeStyle;rounded=0;orthogonalLoop=1;jettySize=auto;html=1;entryX=0.5;entryY=0;entryDx=0;entryDy=0;" edge="1" parent="1" source="DI8fNH34Mr8xwV1-nI3R-17" target="DI8fNH34Mr8xwV1-nI3R-19">
          <mxGeometry relative="1" as="geometry" />
        </mxCell>
        <mxCell id="DI8fNH34Mr8xwV1-nI3R-28" style="edgeStyle=orthogonalEdgeStyle;rounded=0;orthogonalLoop=1;jettySize=auto;html=1;entryX=0;entryY=0.5;entryDx=0;entryDy=0;" edge="1" parent="1" source="DI8fNH34Mr8xwV1-nI3R-17" target="DI8fNH34Mr8xwV1-nI3R-27">
          <mxGeometry relative="1" as="geometry" />
        </mxCell>
        <mxCell id="DI8fNH34Mr8xwV1-nI3R-17" value="i=0;i&amp;lt;myArray.Length;&lt;br style=&quot;border-color: var(--border-color);&quot;&gt;i++" style="shape=hexagon;perimeter=hexagonPerimeter2;whiteSpace=wrap;html=1;fixedSize=1;" vertex="1" parent="1">
          <mxGeometry x="490" y="600" width="140" height="90" as="geometry" />
        </mxCell>
        <mxCell id="DI8fNH34Mr8xwV1-nI3R-22" style="edgeStyle=orthogonalEdgeStyle;rounded=0;orthogonalLoop=1;jettySize=auto;html=1;entryX=0.5;entryY=0;entryDx=0;entryDy=0;" edge="1" parent="1" source="DI8fNH34Mr8xwV1-nI3R-19" target="DI8fNH34Mr8xwV1-nI3R-21">
          <mxGeometry relative="1" as="geometry" />
        </mxCell>
        <mxCell id="DI8fNH34Mr8xwV1-nI3R-25" style="edgeStyle=orthogonalEdgeStyle;rounded=0;orthogonalLoop=1;jettySize=auto;html=1;" edge="1" parent="1" source="DI8fNH34Mr8xwV1-nI3R-19">
          <mxGeometry relative="1" as="geometry">
            <mxPoint x="400" y="800" as="targetPoint" />
          </mxGeometry>
        </mxCell>
        <mxCell id="DI8fNH34Mr8xwV1-nI3R-19" value="myArray[i].Length&amp;lt;=3" style="rhombus;whiteSpace=wrap;html=1;" vertex="1" parent="1">
          <mxGeometry x="495" y="730" width="130" height="140" as="geometry" />
        </mxCell>
        <mxCell id="DI8fNH34Mr8xwV1-nI3R-24" style="edgeStyle=orthogonalEdgeStyle;rounded=0;orthogonalLoop=1;jettySize=auto;html=1;entryX=0;entryY=0.5;entryDx=0;entryDy=0;" edge="1" parent="1" source="DI8fNH34Mr8xwV1-nI3R-21" target="DI8fNH34Mr8xwV1-nI3R-17">
          <mxGeometry relative="1" as="geometry">
            <mxPoint x="420" y="640" as="targetPoint" />
            <Array as="points">
              <mxPoint x="560" y="990" />
              <mxPoint x="400" y="990" />
              <mxPoint x="400" y="645" />
            </Array>
          </mxGeometry>
        </mxCell>
        <mxCell id="DI8fNH34Mr8xwV1-nI3R-21" value="array[i]=myArray[i]" style="rounded=0;whiteSpace=wrap;html=1;" vertex="1" parent="1">
          <mxGeometry x="500" y="910" width="120" height="60" as="geometry" />
        </mxCell>
        <mxCell id="DI8fNH34Mr8xwV1-nI3R-23" value="yes" style="text;html=1;align=center;verticalAlign=middle;resizable=0;points=[];autosize=1;strokeColor=none;fillColor=none;" vertex="1" parent="1">
          <mxGeometry x="560" y="870" width="40" height="30" as="geometry" />
        </mxCell>
        <mxCell id="DI8fNH34Mr8xwV1-nI3R-26" value="No" style="text;html=1;align=center;verticalAlign=middle;resizable=0;points=[];autosize=1;strokeColor=none;fillColor=none;" vertex="1" parent="1">
          <mxGeometry x="430" y="775" width="40" height="30" as="geometry" />
        </mxCell>
        <mxCell id="DI8fNH34Mr8xwV1-nI3R-29" style="edgeStyle=orthogonalEdgeStyle;rounded=0;orthogonalLoop=1;jettySize=auto;html=1;" edge="1" parent="1" source="DI8fNH34Mr8xwV1-nI3R-27" target="DI8fNH34Mr8xwV1-nI3R-30">
          <mxGeometry relative="1" as="geometry">
            <mxPoint x="740" y="780" as="targetPoint" />
          </mxGeometry>
        </mxCell>
        <mxCell id="DI8fNH34Mr8xwV1-nI3R-27" value="myArray, array" style="shape=document;whiteSpace=wrap;html=1;boundedLbl=1;" vertex="1" parent="1">
          <mxGeometry x="680" y="605" width="120" height="80" as="geometry" />
        </mxCell>
        <mxCell id="DI8fNH34Mr8xwV1-nI3R-30" value="End" style="ellipse;whiteSpace=wrap;html=1;" vertex="1" parent="1">
          <mxGeometry x="680" y="740" width="120" height="80" as="geometry" />
        </mxCell>
      </root>
    </mxGraphModel>
  </diagram>
</mxfile>
